<svg width="120" height="120" viewBox="0 0 120 120" fill="none" xmlns="http://www.w3.org/2000/svg">
<path d="M97.6175 23.3825L90.215 30.785C97.775 38.3975 102.5 48.8975 102.5 60.5C102.5 71.6391 98.0751 82.322 90.1985 90.1985C82.322 98.0751 71.6391 102.5 60.5 102.5C49.3609 102.5 38.678 98.0751 30.8015 90.1985C22.925 82.322 18.5 71.6391 18.5 60.5C18.5 39.08 34.5125 21.44 55.25 18.8675V29.4725C40.34 31.9925 29 44.9075 29 60.5C29 68.8543 32.3187 76.8664 38.2262 82.7738C44.1336 88.6813 52.1457 92 60.5 92C68.8543 92 76.8664 88.6813 82.7738 82.7738C88.6813 76.8664 92 68.8543 92 60.5C92 51.785 88.4825 43.91 82.76 38.24L75.3575 45.6425C79.1375 49.475 81.5 54.725 81.5 60.5C81.5 66.0696 79.2875 71.411 75.3493 75.3493C71.411 79.2875 66.0696 81.5 60.5 81.5C54.9304 81.5 49.589 79.2875 45.6507 75.3493C41.7125 71.411 39.5 66.0696 39.5 60.5C39.5 50.735 46.22 42.5975 55.25 40.235V51.47C52.1 53.3075 50 56.615 50 60.5C50 63.2848 51.1063 65.9554 53.0754 67.9246C55.0446 69.8937 57.7152 71 60.5 71C63.2848 71 65.9554 69.8937 67.9246 67.9246C69.8937 65.9554 71 63.2848 71 60.5C71 56.615 68.9 53.255 65.75 51.47V8H60.5C53.6056 8 46.7787 9.35796 40.4091 11.9963C34.0396 14.6347 28.252 18.5018 23.3769 23.3769C13.5312 33.2226 8 46.5761 8 60.5C8 74.4239 13.5312 87.7774 23.3769 97.6228C28.252 102.498 34.0396 106.365 40.4091 109.004C46.7787 111.642 53.6056 113 60.5 113C74.4239 113 87.7774 107.469 97.6228 97.6228C107.469 87.7774 113 74.4239 113 60.5C113 46.01 107.12 32.885 97.6175 23.3825Z" fill="url(#paint0_linear)"/>
<defs>
<linearGradient id="paint0_linear" x1="95.3821" y1="8.11049" x2="2.10334" y2="102.075" gradientUnits="userSpaceOnUse">
<stop offset="0.0416667" stop-color="#00F299"/>
<stop offset="0.947917" stop-color="#D119FF"/>
</linearGradient>
</defs>
</svg>
